<?xml version="1.0" encoding="UTF-8" standalone="no"?>
<!DOCTYPE svg PUBLIC "-//W3C//DTD SVG 1.1//EN"
 "http://www.w3.org/Graphics/SVG/1.1/DTD/svg11.dtd">
<!-- Generated by graphviz version 14.0.4 (20251115.1723)
 -->
<!-- Title: G Pages: 1 -->
<svg width="656pt" height="116pt"
 viewBox="0.00 0.00 656.00 116.00" xmlns="http://www.w3.org/2000/svg" xmlns:xlink="http://www.w3.org/1999/xlink">
<g id="graph0" class="graph" transform="scale(1 1) rotate(0) translate(4 112)">
<title>G</title>
<polygon fill="white" stroke="none" points="-4,4 -4,-112 652.29,-112 652.29,4 -4,4"/>
<!-- curl -->
<g id="node1" class="node">
<title>curl</title>
<ellipse fill="none" stroke="black" cx="365.89" cy="-90" rx="27" ry="18"/>
<text xml:space="preserve" text-anchor="middle" x="365.89" y="-84.95" font-family="Times,serif" font-size="14.00">curl</text>
</g>
<!-- libcurl=8.14.1&#45;r2 -->
<g id="node2" class="node">
<title>libcurl=8.14.1&#45;r2</title>
<ellipse fill="none" stroke="black" cx="74.89" cy="-18" rx="74.89" ry="18"/>
<text xml:space="preserve" text-anchor="middle" x="74.89" y="-12.95" font-family="Times,serif" font-size="14.00">libcurl=8.14.1&#45;r2</text>
</g>
<!-- curl&#45;&gt;libcurl=8.14.1&#45;r2 -->
<g id="edge1" class="edge">
<title>curl&#45;&gt;libcurl=8.14.1&#45;r2</title>
<path fill="none" stroke="black" d="M340.58,-82.91C295.71,-72.12 200.98,-49.33 137.63,-34.09"/>
<polygon fill="black" stroke="black" points="138.59,-30.72 128.05,-31.79 136.95,-37.53 138.59,-30.72"/>
</g>
<!-- so:libc.musl&#45;x86_64.so.1 -->
<g id="node3" class="node">
<title>so:libc.musl&#45;x86_64.so.1</title>
<ellipse fill="none" stroke="black" cx="272.89" cy="-18" rx="105.09" ry="18"/>
<text xml:space="preserve" text-anchor="middle" x="272.89" y="-12.95" font-family="Times,serif" font-size="14.00">so:libc.musl&#45;x86_64.so.1</text>
</g>
<!-- curl&#45;&gt;so:libc.musl&#45;x86_64.so.1 -->
<g id="edge2" class="edge">
<title>curl&#45;&gt;so:libc.musl&#45;x86_64.so.1</title>
<path fill="none" stroke="black" d="M348.4,-75.83C335.94,-66.45 318.85,-53.59 304.08,-42.47"/>
<polygon fill="black" stroke="black" points="306.55,-39.95 296.46,-36.73 302.34,-45.54 306.55,-39.95"/>
</g>
<!-- so:libcurl.so.4 -->
<g id="node4" class="node">
<title>so:libcurl.so.4</title>
<ellipse fill="none" stroke="black" cx="459.89" cy="-18" rx="63.63" ry="18"/>
<text xml:space="preserve" text-anchor="middle" x="459.89" y="-12.95" font-family="Times,serif" font-size="14.00">so:libcurl.so.4</text>
</g>
<!-- curl&#45;&gt;so:libcurl.so.4 -->
<g id="edge3" class="edge">
<title>curl&#45;&gt;so:libcurl.so.4</title>
<path fill="none" stroke="black" d="M383.58,-75.83C396.35,-66.32 413.93,-53.23 429,-42.01"/>
<polygon fill="black" stroke="black" points="430.85,-44.99 436.78,-36.22 426.67,-39.38 430.85,-44.99"/>
</g>
<!-- so:libz.so.1 -->
<g id="node5" class="node">
<title>so:libz.so.1</title>
<ellipse fill="none" stroke="black" cx="594.89" cy="-18" rx="53.4" ry="18"/>
<text xml:space="preserve" text-anchor="middle" x="594.89" y="-12.95" font-family="Times,serif" font-size="14.00">so:libz.so.1</text>
</g>
<!-- curl&#45;&gt;so:libz.so.1 -->
<g id="edge4" class="edge">
<title>curl&#45;&gt;so:libz.so.1</title>
<path fill="none" stroke="black" d="M389.97,-81.64C426.72,-70.41 497.61,-48.74 545.59,-34.07"/>
<polygon fill="black" stroke="black" points="546.37,-37.49 554.91,-31.22 544.32,-30.8 546.37,-37.49"/>
</g>
</g>
</svg>
